<?xml version="1.0" encoding="UTF-8"?>
<svg width="217px" height="138px" viewBox="0 0 217 138" version="1.1" xmlns="http://www.w3.org/2000/svg" xmlns:xlink="http://www.w3.org/1999/xlink">
    <!-- Generator: Sketch 49.2 (51160) - http://www.bohemiancoding.com/sketch -->
    <title>Face-tube</title>
    <desc>Created with Sketch.</desc>
    <defs></defs>
    <g id="Face-tube" stroke="none" stroke-width="1" fill="none" fill-rule="evenodd">
        <g id="youtube" transform="translate(155.163680, 62.163680) rotate(13.000000) translate(-155.163680, -62.163680) translate(101.663680, 8.663680)" fill-rule="nonzero">
            <rect id="Rectangle-path" fill="#DC472E" x="0" y="0" width="106.408821" height="106.408821" rx="10"></rect>
            <g id="Group" transform="translate(21.481118, 14.709896)" fill="#FFFFFF">
                <path d="M39.9873353,53.407197 C39.9850004,53.0102633 39.8682552,52.5969852 39.7211562,52.2257355 C39.5250243,51.7377405 39.1047415,51.4949105 38.5770532,51.4435426 C37.9583036,51.3828351 37.4633039,51.6326698 37.0150023,52.0296035 C36.8352147,52.1860421 36.753493,52.4195325 36.753493,52.4195325 L36.7628326,65.0210103 L36.7628326,65.3315526 C36.7628326,65.3315526 36.8702382,65.4763166 36.8865825,65.4949959 C37.2508276,65.8895947 37.6757802,66.2024718 38.2198128,66.3145472 C39.116416,66.4990046 39.7491751,66.12542 39.9242929,65.2941941 C39.968656,65.0863876 39.99434,64.8715764 39.99434,64.6591002 C39.9990098,60.9069092 40.0060145,57.1570531 39.9873353,53.407197 Z M39.9873353,53.407197 C39.9850004,53.0102633 39.8682552,52.5969852 39.7211562,52.2257355 C39.5250243,51.7377405 39.1047415,51.4949105 38.5770532,51.4435426 C37.9583036,51.3828351 37.4633039,51.6326698 37.0150023,52.0296035 C36.8352147,52.1860421 36.753493,52.4195325 36.753493,52.4195325 L36.7628326,65.0210103 L36.7628326,65.3315526 C36.7628326,65.3315526 36.8702382,65.4763166 36.8865825,65.4949959 C37.2508276,65.8895947 37.6757802,66.2024718 38.2198128,66.3145472 C39.116416,66.4990046 39.7491751,66.12542 39.9242929,65.2941941 C39.968656,65.0863876 39.99434,64.8715764 39.99434,64.6591002 C39.9990098,60.9069092 40.0060145,57.1570531 39.9873353,53.407197 Z M54.0971612,34.403412 C39.1841282,34.0835301 24.2640906,34.0835301 9.3487228,34.403412 C4.17457516,34.5131525 0.0371249763,38.7439988 0.0371249763,43.9204813 L0.0371249763,67.2134853 C0.0371249763,72.3923028 4.17457516,76.6231491 9.3487228,76.7328896 C24.2640906,77.0527715 39.1841282,77.0527715 54.0971612,76.7328896 C59.2736437,76.6231491 63.4110939,72.3923028 63.4110939,67.2134853 L63.4110939,43.9204813 C63.4110939,38.7442323 59.2736437,34.5131525 54.0971612,34.403412 Z M13.729003,69.3361467 L9.42810954,69.3361467 L9.42810954,45.0227896 L4.97544729,45.0227896 L4.97544729,40.9553865 L18.1910049,40.9553865 L18.1910049,45.01345 L13.729003,45.01345 L13.729003,69.3361467 Z M29.1206913,59.2444574 L29.1206913,69.3382481 L25.3124626,69.3382481 L25.3124626,67.0313628 C25.1747032,67.1784618 25.0976514,67.2578485 25.0252694,67.3395701 C24.205718,68.2641922 23.2764262,69.0347106 22.0902948,69.4433188 C21.5112386,69.6417857 20.915838,69.7094979 20.3064281,69.6044272 C19.4752022,69.4666678 18.9171601,68.9880125 18.5809339,68.2315035 C18.2680567,67.5333672 18.18867,66.7861979 18.1863351,66.0343587 C18.1769955,63.2558228 18.1816653,48.5505963 18.1816653,48.4081672 L21.9805543,48.4081672 C21.9875591,48.5365869 22.0015685,59.0926886 22.0039034,64.2411523 C22.0039034,64.5213408 22.0062383,64.808534 22.062276,65.0817178 C22.2023702,65.7728494 22.7323935,66.0693823 23.3978412,65.8265522 C24.1636897,65.5463637 24.7474158,65.0186754 25.2377457,64.3859164 C25.3101277,64.2948551 25.3101277,64.1314118 25.3101277,64.0006572 L25.3101277,48.3848181 L29.1206913,48.3754785 C29.1206913,48.375712 29.1206913,55.746771 29.1206913,59.2444574 Z M43.6087716,67.3208909 C43.0997625,68.852588 41.9790085,69.632446 40.3679247,69.6161017 C39.0580434,69.6044272 37.995662,69.0837436 37.120073,68.1334376 C37.022007,68.0283669 36.7511581,67.7411737 36.7511581,67.7411737 L36.7511581,69.3335783 L32.9359247,69.3335783 L32.9359247,40.9528182 L36.7511581,40.9528182 C36.7511581,43.9741841 36.7511581,50.2947697 36.7511581,50.2947697 C36.7511581,50.2947697 36.9659693,49.8651474 37.1621012,49.6433315 C37.752832,48.9825536 38.4719825,48.4712096 39.3592461,48.2470588 C40.823231,47.8804788 42.5113667,48.3334502 43.3145737,50.044935 C43.7885593,51.0559485 43.9216488,52.1346742 43.9216488,53.2320792 C43.9286535,57.1990813 43.9286535,61.1660835 43.9239837,65.1330857 C43.9216488,65.8755852 43.844597,66.6089786 43.6087716,67.3208909 Z M57.6999183,66.5225872 C57.0391404,68.4582227 55.6732215,69.5322786 53.6698737,69.8264766 C52.4277047,70.0085991 51.1972102,69.9829152 50.032093,69.4552268 C48.4373535,68.7360763 47.5337455,67.4355347 47.1461515,65.7800877 C46.9663638,65.0095693 46.8776375,64.2016924 46.8682979,63.4101599 C46.8379441,60.3024025 46.8519535,57.1923101 46.8589582,54.0845527 C46.8612931,52.4594594 47.2488872,50.9604509 48.3626365,49.715947 C49.6328244,48.2939903 51.2579177,47.7639671 53.1141665,47.8830472 C53.6722086,47.9180708 54.2419252,48.009132 54.7719485,48.1842498 C56.5768294,48.7773155 57.5411448,50.129225 57.9193993,51.9224314 C58.0641633,52.6135631 58.1178661,53.3303786 58.1295407,54.0378546 C58.1598944,55.6956366 58.1178661,59.3497616 58.1178661,59.3497616 L50.811951,59.3497616 L50.811951,64.5869516 C50.811951,65.527918 51.5731298,66.2890968 52.5140961,66.2890968 C53.4527276,66.2890968 54.2139064,65.527918 54.2139064,64.5869516 L54.2139064,61.8948071 L58.1388803,61.8948071 C58.1388803,61.8945736 58.1972529,65.0726117 57.6999183,66.5225872 Z M54.2139064,53.1622655 C54.2139064,52.2236341 53.4527276,51.4601204 52.5140961,51.4601204 C51.5731298,51.4601204 50.811951,52.2236341 50.811951,53.1622655 L50.811951,56.1019099 L54.2139064,56.1019099 L54.2139064,53.1622655 Z M39.7211562,52.225969 C39.5250243,51.737974 39.1047415,51.495144 38.5770532,51.4437761 C37.9583036,51.3830686 37.4633039,51.6329033 37.0150023,52.029837 C36.8352147,52.1862756 36.753493,52.419766 36.753493,52.419766 L36.7628326,65.0212438 L36.7628326,65.3317861 C36.7628326,65.3317861 36.8702382,65.4765501 36.8865825,65.4952293 C37.2508276,65.8898281 37.6757802,66.2027053 38.2198128,66.3147807 C39.116416,66.4992381 39.7491751,66.1256535 39.9242929,65.2944276 C39.968656,65.0866211 39.99434,64.8718099 39.99434,64.6593336 C39.9990098,60.9071427 40.0060145,57.1572866 39.9873353,53.4074305 C39.9850004,53.0102633 39.8682552,52.5969852 39.7211562,52.225969 Z" id="Shape"></path>
                <path d="M49.4735839,7.46935843 L49.4724165,28.5404676 L45.5679897,28.5404676 L45.5726595,26.276778 C45.1409358,26.7019641 44.7724879,27.0991313 44.3676155,27.4559046 C43.649866,28.0881967 42.8368523,28.5596138 41.8858459,28.7457057 C40.4258303,29.0312645 39.1822603,28.5696539 38.7166804,27.05757 C38.5616428,26.5539311 38.4680131,26.0110659 38.4640438,25.4852455 L38.4640438,7.46935843 L42.3390508,7.46935843 L42.3390508,23.5384024 C42.3390508,23.7513457 42.3560956,23.9666238 42.393454,24.1753643 C42.5111332,24.8375431 43.0005291,25.1492528 43.6381914,24.9281374 C44.415481,24.6591564 45.0085467,24.120961 45.5117185,23.486801 C45.5831666,23.3962067 45.5703246,23.2271597 45.5703246,23.0943036 L45.5703246,7.46935843 L49.4735839,7.46935843 Z" id="Shape"></path>
                <path d="M17.1797579,11.1309551 C16.3321877,7.55831828 14.556493,0.0163443292 14.556493,0.0163443292 L10.1134039,0.0163443292 C10.1134039,0.0163443292 13.5270338,11.3375942 15.0535941,16.3865909 C15.1084644,16.5691804 15.1336814,16.7674138 15.1336814,16.9586425 L15.1320469,28.5360313 L19.2291033,28.5360313 L19.2274688,16.9586425 C19.2274688,16.7674138 19.2526858,16.5691804 19.307556,16.3865909 C20.8341164,11.3375942 24.2477463,0.0163443292 24.2477463,0.0163443292 L19.8046571,0.0163443292 C19.8046571,0.0163443292 18.028729,7.55831828 17.1813923,11.1309551 L17.1797579,11.1309551 Z" id="Shape"></path>
                <path d="M29.5953773,6.94190358 C26.5077,6.94190358 24.0046828,9.44492085 24.0046828,12.5325981 L24.0046828,23.4737256 C24.0046828,26.5614028 26.5077,29.0644201 29.5953773,29.0644201 C32.6830546,29.0644201 35.1860718,26.5614028 35.1860718,23.4737256 L35.1860718,12.5325981 C35.1863053,9.44492085 32.6830546,6.94190358 29.5953773,6.94190358 Z M31.2087961,23.6946075 C31.2087961,24.584206 30.4849758,25.3077928 29.5956108,25.3077928 C28.7062458,25.3077928 27.9824255,24.584206 27.9824255,23.6946075 L27.9824255,12.3114827 C27.9824255,11.4218842 28.7062458,10.6982974 29.5956108,10.6982974 C30.4849758,10.6982974 31.2087961,11.4221177 31.2087961,12.3114827 L31.2087961,23.6946075 Z" id="Shape"></path>
            </g>
        </g>
        <g id="facebook" transform="translate(-3.000000, 10.000000)" fill="#3C5B9A" fill-rule="nonzero">
            <path d="M103.388372,14.347256 L26.6561093,14.347256 C19.6031355,14.347256 13.8673988,20.0829926 13.8673988,27.1359664 L13.8673988,103.868229 C13.8673988,110.921203 19.6031355,116.65694 26.6561093,116.65694 L65.0222407,116.65694 L65.0222407,81.487986 L52.2335303,81.487986 L52.2335303,65.5020979 L65.0222407,65.5020979 L65.0222407,52.7133874 C65.0222407,42.1179408 73.6098598,33.5303217 84.2053065,33.5303217 L96.9940169,33.5303217 L96.9940169,49.5162098 L90.5996617,49.5162098 C87.0699776,49.5162098 84.2053065,49.1837033 84.2053065,52.7133874 L84.2053065,65.5020979 L100.191195,65.5020979 L93.7968393,81.487986 L84.2053065,81.487986 L84.2053065,116.65694 L103.388372,116.65694 C110.441346,116.65694 116.177083,110.921203 116.177083,103.868229 L116.177083,27.1359664 C116.177083,20.0829926 110.441346,14.347256 103.388372,14.347256 Z" id="Shape" transform="translate(65.022241, 65.502098) rotate(-19.000000) translate(-65.022241, -65.502098) "></path>
        </g>
    </g>
</svg>