<svg width="249" height="28" viewBox="0 0 249 28" version="1.1" xmlns="http://www.w3.org/2000/svg" xmlns:xlink="http://www.w3.org/1999/xlink">
<title>Media Platform</title>
<desc>Created using Figma</desc>
<g id="Canvas" transform="translate(509 -2030)">
<g id="Media Platform">
<use xlink:href="#path0_fill" transform="translate(-512 2021)" fill="#DB562B"/>
<use xlink:href="#path1_fill" transform="translate(-512 2021)" fill="#007477"/>
</g>
</g>
<defs>
<path id="path0_fill" d="M 25.344 10.8C 25.632 10.8 25.872 10.908 26.064 11.124C 26.28 11.316 26.388 11.568 26.388 11.88L 26.388 34.92C 26.388 35.232 26.28 35.496 26.064 35.712C 25.848 35.904 25.584 36 25.272 36C 24.936 36 24.66 35.904 24.444 35.712C 24.228 35.496 24.12 35.232 24.12 34.92L 24.12 15.12L 15.66 27.936C 15.42 28.248 15.144 28.392 14.832 28.368L 14.76 28.368C 14.472 28.368 14.208 28.224 13.968 27.936L 5.508 15.048L 5.508 34.92C 5.508 35.232 5.4 35.496 5.184 35.712C 4.992 35.904 4.74 36 4.428 36C 4.116 36 3.864 35.904 3.672 35.712C 3.48 35.496 3.384 35.232 3.384 34.92L 3.384 11.88C 3.384 11.592 3.48 11.34 3.672 11.124C 3.888 10.908 4.152 10.8 4.464 10.8C 4.632 10.8 4.812 10.848 5.004 10.944C 5.196 11.016 5.34 11.124 5.436 11.268L 14.868 25.416L 24.372 11.268C 24.636 10.908 24.96 10.752 25.344 10.8ZM 48.1733 25.74C 48.1733 26.028 48.0653 26.28 47.8493 26.496C 47.6333 26.688 47.3813 26.784 47.0933 26.784L 33.4853 26.784C 33.4853 28.224 33.7733 29.52 34.3493 30.672C 34.9493 31.8 35.7893 32.7 36.8693 33.372C 37.9733 34.02 39.2693 34.344 40.7573 34.344C 41.9093 34.344 42.9413 34.104 43.8533 33.624C 44.7653 33.144 45.4973 32.532 46.0493 31.788C 46.3133 31.572 46.5653 31.464 46.8053 31.464C 47.0453 31.464 47.2613 31.56 47.4533 31.752C 47.6453 31.944 47.7413 32.16 47.7413 32.4C 47.7413 32.664 47.6213 32.916 47.3813 33.156C 46.6133 34.092 45.6413 34.86 44.4653 35.46C 43.3133 36.06 42.0893 36.36 40.7933 36.36C 38.9453 36.36 37.3133 35.964 35.8973 35.172C 34.4813 34.38 33.3773 33.276 32.5853 31.86C 31.7933 30.42 31.3973 28.764 31.3973 26.892C 31.3973 24.924 31.7813 23.208 32.5493 21.744C 33.3413 20.256 34.3853 19.128 35.6813 18.36C 36.9773 17.568 38.3573 17.172 39.8213 17.172C 41.2613 17.172 42.6053 17.508 43.8533 18.18C 45.1253 18.852 46.1573 19.836 46.9493 21.132C 47.7413 22.428 48.1493 23.964 48.1733 25.74ZM 39.8213 19.26C 38.4293 19.26 37.1333 19.74 35.9333 20.7C 34.7573 21.66 34.0013 23.04 33.6653 24.84L 45.9413 24.84L 45.9413 24.552C 45.8213 23.472 45.4613 22.536 44.8613 21.744C 44.2613 20.928 43.5053 20.316 42.5933 19.908C 41.7053 19.476 40.7813 19.26 39.8213 19.26ZM 67.5652 9.36C 67.8772 9.36 68.1293 9.468 68.3212 9.684C 68.5373 9.876 68.6452 10.128 68.6452 10.44L 68.6452 34.92C 68.6452 35.232 68.5373 35.496 68.3212 35.712C 68.1293 35.904 67.8772 36 67.5652 36C 67.2532 36 66.9892 35.904 66.7733 35.712C 66.5813 35.496 66.4852 35.232 66.4852 34.92L 66.4852 32.4C 65.8853 33.504 64.9852 34.44 63.7852 35.208C 62.6093 35.976 61.3012 36.36 59.8613 36.36C 58.2773 36.36 56.8372 35.952 55.5412 35.136C 54.2693 34.296 53.2612 33.144 52.5172 31.68C 51.7733 30.216 51.4013 28.572 51.4013 26.748C 51.4013 24.948 51.7733 23.316 52.5172 21.852C 53.2612 20.388 54.2693 19.248 55.5412 18.432C 56.8372 17.592 58.2652 17.172 59.8253 17.172C 61.2412 17.172 62.5493 17.532 63.7493 18.252C 64.9493 18.948 65.8612 19.86 66.4852 20.988L 66.4852 10.44C 66.4852 10.128 66.5813 9.876 66.7733 9.684C 66.9892 9.468 67.2532 9.36 67.5652 9.36ZM 60.0773 34.344C 61.3253 34.344 62.4412 34.02 63.4253 33.372C 64.4333 32.724 65.2133 31.824 65.7653 30.672C 66.3413 29.496 66.6292 28.188 66.6292 26.748C 66.6292 25.332 66.3413 24.048 65.7653 22.896C 65.2133 21.744 64.4333 20.844 63.4253 20.196C 62.4412 19.524 61.3253 19.188 60.0773 19.188C 58.8292 19.188 57.7012 19.524 56.6933 20.196C 55.7093 20.844 54.9293 21.744 54.3533 22.896C 53.8012 24.048 53.5253 25.332 53.5253 26.748C 53.5253 28.188 53.8012 29.484 54.3533 30.636C 54.9293 31.788 55.7093 32.7 56.6933 33.372C 57.7012 34.02 58.8292 34.344 60.0773 34.344ZM 76.3695 34.92C 76.3695 35.232 76.2615 35.496 76.0455 35.712C 75.8535 35.904 75.6015 36 75.2895 36C 74.9775 36 74.7135 35.904 74.4975 35.712C 74.3055 35.496 74.2095 35.232 74.2095 34.92L 74.2095 18.36C 74.2095 18.048 74.3055 17.796 74.4975 17.604C 74.7135 17.388 74.9775 17.28 75.2895 17.28C 75.6015 17.28 75.8535 17.388 76.0455 17.604C 76.2615 17.796 76.3695 18.048 76.3695 18.36L 76.3695 34.92ZM 75.2895 14.868C 74.8095 14.868 74.4375 14.76 74.1735 14.544C 73.9095 14.304 73.7775 13.968 73.7775 13.536L 73.7775 13.176C 73.7775 12.744 73.9095 12.42 74.1735 12.204C 74.4615 11.964 74.8455 11.844 75.3255 11.844C 76.2855 11.844 76.7655 12.288 76.7655 13.176L 76.7655 13.536C 76.7655 13.968 76.6335 14.304 76.3695 14.544C 76.1295 14.76 75.7695 14.868 75.2895 14.868ZM 96.9207 17.604C 97.2327 17.604 97.4847 17.712 97.6767 17.928C 97.8927 18.144 98.0007 18.408 98.0007 18.72L 98.0007 34.92C 98.0007 35.232 97.8927 35.496 97.6767 35.712C 97.4847 35.904 97.2327 36 96.9207 36C 96.6087 36 96.3447 35.904 96.1287 35.712C 95.9367 35.496 95.8407 35.232 95.8407 34.92L 95.8407 32.508C 95.2407 33.588 94.3407 34.5 93.1407 35.244C 91.9407 35.988 90.6327 36.36 89.2167 36.36C 87.6087 36.36 86.1567 35.94 84.8607 35.1C 83.5887 34.26 82.5807 33.108 81.8367 31.644C 81.1167 30.18 80.7567 28.536 80.7567 26.712C 80.7567 24.888 81.1287 23.256 81.8727 21.816C 82.6167 20.352 83.6247 19.212 84.8967 18.396C 86.1927 17.58 87.6207 17.172 89.1807 17.172C 90.6207 17.172 91.9407 17.52 93.1407 18.216C 94.3407 18.912 95.2407 19.824 95.8407 20.952L 95.8407 18.72C 95.8407 18.408 95.9367 18.144 96.1287 17.928C 96.3447 17.712 96.6087 17.604 96.9207 17.604ZM 89.4327 34.344C 90.6807 34.344 91.7967 34.02 92.7807 33.372C 93.7887 32.7 94.5687 31.788 95.1207 30.636C 95.6967 29.46 95.9847 28.152 95.9847 26.712C 95.9847 25.32 95.6967 24.048 95.1207 22.896C 94.5687 21.744 93.7887 20.844 92.7807 20.196C 91.7967 19.524 90.6807 19.188 89.4327 19.188C 88.1847 19.188 87.0567 19.512 86.0487 20.16C 85.0647 20.808 84.2847 21.708 83.7087 22.86C 83.1567 23.988 82.8807 25.272 82.8807 26.712C 82.8807 28.152 83.1567 29.46 83.7087 30.636C 84.2607 31.788 85.0287 32.7 86.0127 33.372C 87.0207 34.02 88.1607 34.344 89.4327 34.344Z"/>
<path id="path1_fill" d="M 123.633 10.8C 124.953 10.8 126.141 11.112 127.197 11.736C 128.253 12.336 129.069 13.188 129.645 14.292C 130.245 15.372 130.545 16.596 130.545 17.964C 130.545 19.332 130.245 20.58 129.645 21.708C 129.069 22.836 128.253 23.724 127.197 24.372C 126.141 25.02 124.953 25.344 123.633 25.344L 116.181 25.344L 116.181 34.92C 116.181 35.232 116.073 35.496 115.857 35.712C 115.665 35.904 115.413 36 115.101 36C 114.789 36 114.525 35.904 114.309 35.712C 114.117 35.496 114.021 35.232 114.021 34.92L 114.021 11.88C 114.021 11.568 114.117 11.316 114.309 11.124C 114.525 10.908 114.789 10.8 115.101 10.8L 123.633 10.8ZM 123.633 23.256C 125.025 23.256 126.153 22.752 127.017 21.744C 127.881 20.736 128.313 19.476 128.313 17.964C 128.313 16.476 127.881 15.264 127.017 14.328C 126.153 13.392 125.025 12.924 123.633 12.924L 116.181 12.924L 116.181 23.256L 123.633 23.256ZM 137.302 34.92C 137.302 35.232 137.194 35.496 136.978 35.712C 136.786 35.904 136.534 36 136.222 36C 135.91 36 135.646 35.904 135.43 35.712C 135.238 35.496 135.142 35.232 135.142 34.92L 135.142 10.44C 135.142 10.128 135.238 9.876 135.43 9.684C 135.646 9.468 135.91 9.36 136.222 9.36C 136.534 9.36 136.786 9.468 136.978 9.684C 137.194 9.876 137.302 10.128 137.302 10.44L 137.302 34.92ZM 158.163 17.604C 158.475 17.604 158.727 17.712 158.919 17.928C 159.135 18.144 159.243 18.408 159.243 18.72L 159.243 34.92C 159.243 35.232 159.135 35.496 158.919 35.712C 158.727 35.904 158.475 36 158.163 36C 157.851 36 157.587 35.904 157.371 35.712C 157.179 35.496 157.083 35.232 157.083 34.92L 157.083 32.508C 156.483 33.588 155.583 34.5 154.383 35.244C 153.183 35.988 151.875 36.36 150.459 36.36C 148.851 36.36 147.399 35.94 146.103 35.1C 144.831 34.26 143.823 33.108 143.079 31.644C 142.359 30.18 141.999 28.536 141.999 26.712C 141.999 24.888 142.371 23.256 143.115 21.816C 143.859 20.352 144.867 19.212 146.139 18.396C 147.435 17.58 148.863 17.172 150.423 17.172C 151.863 17.172 153.183 17.52 154.383 18.216C 155.583 18.912 156.483 19.824 157.083 20.952L 157.083 18.72C 157.083 18.408 157.179 18.144 157.371 17.928C 157.587 17.712 157.851 17.604 158.163 17.604ZM 150.675 34.344C 151.923 34.344 153.039 34.02 154.023 33.372C 155.031 32.7 155.811 31.788 156.363 30.636C 156.939 29.46 157.227 28.152 157.227 26.712C 157.227 25.32 156.939 24.048 156.363 22.896C 155.811 21.744 155.031 20.844 154.023 20.196C 153.039 19.524 151.923 19.188 150.675 19.188C 149.427 19.188 148.299 19.512 147.291 20.16C 146.307 20.808 145.527 21.708 144.951 22.86C 144.399 23.988 144.123 25.272 144.123 26.712C 144.123 28.152 144.399 29.46 144.951 30.636C 145.503 31.788 146.271 32.7 147.255 33.372C 148.263 34.02 149.403 34.344 150.675 34.344ZM 168.479 19.692L 168.479 31.752C 168.479 32.664 168.647 33.288 168.983 33.624C 169.319 33.936 169.763 34.092 170.315 34.092C 170.459 34.092 170.639 34.068 170.855 34.02C 171.071 33.948 171.239 33.912 171.359 33.912C 171.575 33.912 171.755 34.008 171.899 34.2C 172.067 34.368 172.151 34.572 172.151 34.812C 172.151 35.148 171.959 35.436 171.575 35.676C 171.191 35.892 170.735 36 170.207 36C 169.559 36 168.983 35.94 168.479 35.82C 167.975 35.7 167.483 35.34 167.003 34.74C 166.547 34.14 166.319 33.18 166.319 31.86L 166.319 19.692L 163.691 19.692C 163.403 19.692 163.151 19.596 162.935 19.404C 162.743 19.212 162.647 18.972 162.647 18.684C 162.647 18.396 162.743 18.156 162.935 17.964C 163.151 17.772 163.403 17.676 163.691 17.676L 166.319 17.676L 166.319 13.68C 166.319 13.368 166.415 13.116 166.607 12.924C 166.823 12.708 167.087 12.6 167.399 12.6C 167.711 12.6 167.963 12.708 168.155 12.924C 168.371 13.116 168.479 13.368 168.479 13.68L 168.479 17.676L 172.079 17.676C 172.343 17.676 172.571 17.784 172.763 18C 172.979 18.216 173.087 18.456 173.087 18.72C 173.087 19.008 172.991 19.248 172.799 19.44C 172.607 19.608 172.367 19.692 172.079 19.692L 168.479 19.692ZM 182.572 11.412C 181.804 11.412 181.204 11.664 180.772 12.168C 180.364 12.672 180.16 13.368 180.16 14.256L 180.16 17.964L 184.192 17.964C 184.456 17.964 184.684 18.06 184.876 18.252C 185.092 18.444 185.2 18.684 185.2 18.972C 185.2 19.26 185.092 19.5 184.876 19.692C 184.684 19.884 184.456 19.98 184.192 19.98L 180.16 19.98L 180.16 34.92C 180.16 35.232 180.052 35.496 179.836 35.712C 179.644 35.904 179.392 36 179.08 36C 178.768 36 178.504 35.904 178.288 35.712C 178.096 35.496 178 35.232 178 34.92L 178 19.98L 175.372 19.98C 175.084 19.98 174.844 19.884 174.652 19.692C 174.46 19.476 174.364 19.236 174.364 18.972C 174.364 18.66 174.46 18.42 174.652 18.252C 174.844 18.06 175.084 17.964 175.372 17.964L 178 17.964L 178 14.256C 178 12.744 178.432 11.58 179.296 10.764C 180.184 9.924 181.36 9.504 182.824 9.504C 183.496 9.504 184.12 9.612 184.696 9.828C 185.272 10.02 185.56 10.344 185.56 10.8C 185.56 11.088 185.464 11.328 185.272 11.52C 185.08 11.712 184.864 11.808 184.624 11.808C 184.408 11.808 184.144 11.748 183.832 11.628C 183.304 11.484 182.884 11.412 182.572 11.412ZM 205.848 26.784C 205.848 28.584 205.452 30.216 204.66 31.68C 203.868 33.144 202.776 34.296 201.384 35.136C 199.992 35.952 198.444 36.36 196.74 36.36C 195.036 36.36 193.488 35.952 192.096 35.136C 190.704 34.296 189.612 33.144 188.82 31.68C 188.028 30.216 187.632 28.584 187.632 26.784C 187.632 24.984 188.028 23.352 188.82 21.888C 189.612 20.424 190.704 19.272 192.096 18.432C 193.488 17.592 195.036 17.172 196.74 17.172C 198.444 17.172 199.992 17.592 201.384 18.432C 202.776 19.272 203.868 20.424 204.66 21.888C 205.452 23.352 205.848 24.984 205.848 26.784ZM 203.688 26.784C 203.688 25.344 203.388 24.048 202.788 22.896C 202.188 21.744 201.348 20.844 200.268 20.196C 199.212 19.524 198.036 19.188 196.74 19.188C 195.444 19.188 194.268 19.524 193.212 20.196C 192.156 20.844 191.316 21.744 190.692 22.896C 190.092 24.048 189.792 25.344 189.792 26.784C 189.792 28.2 190.092 29.484 190.692 30.636C 191.316 31.788 192.156 32.7 193.212 33.372C 194.268 34.02 195.444 34.344 196.74 34.344C 198.036 34.344 199.212 34.02 200.268 33.372C 201.348 32.724 202.188 31.824 202.788 30.672C 203.388 29.52 203.688 28.224 203.688 26.784ZM 218.87 17.172C 219.35 17.172 219.782 17.268 220.166 17.46C 220.55 17.652 220.742 17.94 220.742 18.324C 220.742 18.66 220.646 18.936 220.454 19.152C 220.262 19.344 220.034 19.44 219.77 19.44C 219.65 19.44 219.41 19.38 219.05 19.26C 218.714 19.14 218.39 19.08 218.078 19.08C 217.19 19.08 216.302 19.428 215.414 20.124C 214.55 20.796 213.83 21.672 213.254 22.752C 212.702 23.832 212.426 24.924 212.426 26.028L 212.426 34.92C 212.426 35.232 212.318 35.496 212.102 35.712C 211.91 35.904 211.658 36 211.346 36C 211.034 36 210.77 35.904 210.554 35.712C 210.362 35.496 210.266 35.232 210.266 34.92L 210.266 18.792C 210.266 18.48 210.362 18.228 210.554 18.036C 210.77 17.82 211.034 17.712 211.346 17.712C 211.658 17.712 211.91 17.82 212.102 18.036C 212.318 18.228 212.426 18.48 212.426 18.792L 212.426 21.96C 212.978 20.592 213.806 19.464 214.91 18.576C 216.038 17.664 217.358 17.196 218.87 17.172ZM 244.997 17.46C 247.157 17.46 248.741 18.132 249.749 19.476C 250.781 20.796 251.297 22.548 251.297 24.732L 251.297 34.92C 251.297 35.232 251.189 35.496 250.973 35.712C 250.781 35.904 250.529 36 250.217 36C 249.905 36 249.641 35.904 249.425 35.712C 249.233 35.496 249.137 35.232 249.137 34.92L 249.137 24.84C 249.137 23.256 248.753 21.972 247.985 20.988C 247.241 19.98 246.077 19.476 244.493 19.476C 243.485 19.476 242.525 19.716 241.613 20.196C 240.725 20.676 240.005 21.336 239.453 22.176C 238.901 22.992 238.625 23.88 238.625 24.84L 238.625 34.92C 238.625 35.232 238.517 35.496 238.301 35.712C 238.109 35.904 237.857 36 237.545 36C 237.233 36 236.969 35.904 236.753 35.712C 236.561 35.496 236.465 35.232 236.465 34.92L 236.465 24.732C 236.465 23.172 236.105 21.912 235.385 20.952C 234.665 19.968 233.537 19.476 232.001 19.476C 231.017 19.476 230.081 19.716 229.193 20.196C 228.329 20.676 227.621 21.324 227.069 22.14C 226.541 22.932 226.277 23.796 226.277 24.732L 226.277 34.92C 226.277 35.232 226.169 35.496 225.953 35.712C 225.761 35.904 225.509 36 225.197 36C 224.885 36 224.621 35.904 224.405 35.712C 224.213 35.496 224.117 35.232 224.117 34.92L 224.117 18.792C 224.117 18.48 224.213 18.228 224.405 18.036C 224.621 17.82 224.885 17.712 225.197 17.712C 225.509 17.712 225.761 17.82 225.953 18.036C 226.169 18.228 226.277 18.48 226.277 18.792L 226.277 20.88C 226.925 19.896 227.801 19.08 228.905 18.432C 230.009 17.784 231.173 17.46 232.397 17.46C 233.789 17.46 234.989 17.796 235.997 18.468C 237.005 19.14 237.725 20.124 238.157 21.42C 238.661 20.364 239.585 19.44 240.929 18.648C 242.273 17.856 243.629 17.46 244.997 17.46Z"/>
</defs>
</svg>
