<?xml version="1.0" encoding="UTF-8"?>
<svg width="512px" height="422px" viewBox="0 0 512 422" version="1.1" xmlns="http://www.w3.org/2000/svg" xmlns:xlink="http://www.w3.org/1999/xlink">
    <!-- Generator: Sketch 49 (51002) - http://www.bohemiancoding.com/sketch -->
    <title>browser</title>
    <desc>Created with Sketch.</desc>
    <defs></defs>
    <g id="Page-1" stroke="none" stroke-width="1" fill="none" fill-rule="evenodd">
        <g id="-" fill-rule="nonzero">
            <g id="browser">
                <path d="M420.634,372.585 L37.694,372.585 C21.216,372.585 7.858,359.227 7.858,342.749 L7.858,38.63 C7.858,22.152 21.216,8.794 37.694,8.794 L420.634,8.794 C437.112,8.794 450.47,22.152 450.47,38.63 L450.47,342.749 C450.47,359.227 437.112,372.585 420.634,372.585 Z" id="Shape" fill="#E9EBF2"></path>
                <path d="M450.47,80.541 L450.47,38.63 C450.47,22.152 437.112,8.794 420.634,8.794 L37.694,8.794 C21.216,8.794 7.858,22.152 7.858,38.63 L7.858,80.541 L448.45,80.541 C448.45,80.54 450.47,80.54 450.47,80.541 Z" id="Shape" fill="#007477"></path>
                <path d="M184.477,287.635 L170.737,285.903 C168.329,277.386 164.939,269.283 160.709,261.714 L169.221,250.77 C173.485,245.288 173,237.489 168.089,232.578 L146.257,210.746 C141.35,205.839 133.559,205.35 128.077,209.605 L117.107,218.119 C109.578,213.913 101.522,210.538 93.057,208.133 L91.338,194.373 C90.477,187.482 84.619,182.31 77.674,182.31 L46.797,182.31 C39.858,182.31 34.003,187.473 33.134,194.358 L31.402,208.098 C23.124,210.439 15.242,213.713 7.856,217.778 L7.856,277.144 C20.072,260.387 39.841,249.488 62.166,249.488 C99.268,249.488 129.345,279.565 129.345,316.667 C129.345,339.997 117.448,360.542 99.395,372.585 L161.475,372.585 L160.715,371.606 C164.921,364.077 168.296,356.022 170.701,347.556 L184.461,345.837 C191.352,344.976 196.524,339.118 196.524,332.173 L196.524,301.297 C196.525,294.358 191.362,288.503 184.477,287.635 Z" id="Shape" fill="#C7CAD3"></path>
                <path d="M99.396,372.585 L129.099,372.585 C141.82,357.142 149.461,337.358 149.461,315.788 C149.461,266.417 109.438,226.394 60.066,226.394 C40.571,226.394 22.549,232.653 7.857,243.245 L7.857,277.144 C20.073,260.387 39.842,249.488 62.167,249.488 C99.269,249.488 129.346,279.565 129.346,316.667 C129.346,339.997 117.449,360.542 99.396,372.585 Z" id="Shape" fill="#B0B6C1"></path>
                <path d="M247.12,111.336 C225.453,111.336 207.889,128.9 207.889,150.567 L207.889,372.584 L420.634,372.584 C437.112,372.584 450.47,359.226 450.47,342.748 L450.47,111.336 L247.12,111.336 Z" id="Shape" fill="#DFE2EA"></path>
                <path d="M470.169,413.208 L263.138,413.208 C244.375,413.208 229.164,397.997 229.164,379.234 L229.164,166.989 C229.164,148.226 244.375,133.015 263.138,133.015 L470.169,133.015 C488.932,133.015 504.143,148.226 504.143,166.989 L504.143,379.234 C504.143,397.998 488.932,413.208 470.169,413.208 Z" id="Shape" fill="#FFDC64"></path>
                <path d="M470.169,133.015 L450.267,133.015 L450.267,212.612 C450.267,294.475 383.904,360.838 302.041,360.838 L229.164,360.838 L229.164,379.235 C229.164,397.998 244.375,413.209 263.138,413.209 L470.168,413.209 C488.932,413.209 504.142,397.998 504.142,379.235 L504.142,166.989 C504.143,148.225 488.932,133.015 470.169,133.015 Z" id="Shape" fill="#FFC850"></path>
                <path d="M298.338,344.005 L442.395,344.005 C448.425,344.005 452.224,337.513 449.271,332.256 L376.514,202.74 C373.485,197.348 365.712,197.382 362.729,202.799 L291.43,332.315 C288.535,337.571 292.338,344.005 298.338,344.005 Z" id="Shape" fill="#FF6B5C"></path>
                <path d="M449.27,332.256 L376.513,202.74 C373.484,197.348 365.711,197.382 362.728,202.799 L359.085,209.418 L368.156,225.566 C394.591,272.624 360.583,330.736 306.608,330.736 L292.299,330.736 L291.429,332.316 C288.535,337.572 292.338,344.006 298.338,344.006 L442.394,344.006 C448.424,344.005 452.223,337.513 449.27,332.256 Z" id="Shape" fill="#FF5450"></path>
                <path d="M156.405,53.03 L287.774,53.03 C292.114,53.03 295.631,49.512 295.631,45.173 C295.631,40.834 292.114,37.316 287.774,37.316 L156.405,37.316 C152.065,37.316 148.548,40.834 148.548,45.173 C148.548,49.512 152.065,53.03 156.405,53.03 Z" id="Shape" fill="#000000"></path>
                <circle id="Oval" fill="#000000" cx="47.27" cy="45.171" r="9.44"></circle>
                <circle id="Oval" fill="#000000" cx="83.65" cy="45.171" r="9.44"></circle>
                <circle id="Oval" fill="#000000" cx="118" cy="45.171" r="9.44"></circle>
                <circle id="Oval" fill="#000000" cx="412.07" cy="45.171" r="9.44"></circle>
                <path d="M470.169,125.158 L458.327,125.158 L458.327,38.63 C458.327,17.846 441.417,0.937 420.633,0.937 L37.694,0.937 C16.91,0.937 0,17.846 0,38.63 L0,217.777 L0,277.143 L0,342.748 C0,363.532 16.91,380.441 37.694,380.441 L99.397,380.441 L161.477,380.441 L221.338,380.441 C221.981,402.949 240.478,421.064 263.138,421.064 L470.169,421.064 C493.234,421.064 512,402.298 512,379.233 L512,166.989 C512,143.923 493.234,125.158 470.169,125.158 Z M15.714,342.749 L15.714,279.828 C26.933,265.715 44.106,257.344 62.167,257.344 C94.878,257.344 121.489,283.956 121.489,316.666 C121.489,335.777 112.324,353.563 96.89,364.727 L37.694,364.727 C25.574,364.728 15.714,354.868 15.714,342.749 Z M119.797,364.728 C130.918,351.409 137.203,334.487 137.203,316.667 C137.203,275.292 103.542,241.631 62.167,241.631 C45.19,241.631 28.823,247.463 15.714,257.783 L15.714,222.536 C21.459,219.691 27.438,217.384 33.541,215.658 C36.576,214.8 38.804,212.21 39.198,209.08 L40.93,195.339 C41.301,192.39 43.823,190.166 46.796,190.166 L77.672,190.166 C80.648,190.166 83.171,192.393 83.539,195.347 L85.259,209.107 C85.651,212.236 87.875,214.829 90.909,215.691 C98.657,217.892 106.182,221.016 113.273,224.978 C116.027,226.517 119.432,226.26 121.923,224.326 L132.893,215.812 C135.24,213.991 138.597,214.2 140.7,216.302 L162.533,238.135 C164.637,240.239 164.846,243.598 163.019,245.947 L154.506,256.891 C152.567,259.383 152.31,262.792 153.849,265.548 C157.832,272.675 160.969,280.243 163.175,288.042 C164.033,291.077 166.624,293.305 169.753,293.699 L183.492,295.431 C186.442,295.803 188.667,298.326 188.667,301.299 L188.667,332.175 C188.667,335.151 186.44,337.674 183.487,338.043 L169.727,339.762 C166.598,340.153 164.004,342.378 163.143,345.412 C161.256,352.059 158.687,358.543 155.493,364.73 L119.797,364.73 L119.797,364.728 Z M496.286,379.234 C496.286,393.635 484.57,405.351 470.169,405.351 L263.138,405.351 C248.737,405.351 237.021,393.635 237.021,379.234 L237.021,347.304 C237.021,342.965 233.504,339.447 229.164,339.447 C224.824,339.447 221.307,342.965 221.307,347.304 L221.307,364.727 L172.862,364.727 C174.291,361.444 175.588,358.109 176.714,354.722 L185.437,353.632 C196.237,352.282 204.382,343.056 204.382,332.172 L204.382,301.296 C204.382,290.423 196.247,281.198 185.46,279.838 C185.46,279.838 185.46,279.838 185.459,279.838 L176.756,278.741 C174.919,273.192 172.669,267.766 170.032,262.523 L175.423,255.592 C182.107,247 181.341,234.716 173.645,227.02 L151.812,205.187 C144.123,197.499 131.847,196.729 123.259,203.395 L116.3,208.796 C111.1,206.181 105.722,203.947 100.223,202.119 L99.133,193.397 C97.785,182.596 88.559,174.45 77.673,174.45 L46.797,174.45 C35.924,174.45 26.699,182.585 25.34,193.373 L24.243,202.078 C21.366,203.032 18.521,204.105 15.714,205.279 L15.714,88.398 L56.708,88.398 C61.048,88.398 64.565,84.88 64.565,80.541 C64.565,76.202 61.048,72.684 56.708,72.684 L15.714,72.684 L15.714,38.63 C15.714,26.511 25.574,16.651 37.694,16.651 L420.634,16.651 C432.754,16.651 442.614,26.511 442.614,38.63 L442.614,72.684 L102.191,72.684 C97.851,72.684 94.334,76.202 94.334,80.541 C94.334,84.88 97.851,88.398 102.191,88.398 L442.613,88.398 L442.613,125.157 L263.138,125.157 C240.073,125.157 221.307,143.923 221.307,166.988 L221.307,303.304 C221.307,307.643 224.824,311.161 229.164,311.161 C233.504,311.161 237.021,307.643 237.021,303.304 L237.021,166.989 C237.021,152.588 248.737,140.872 263.138,140.872 L470.169,140.872 C484.57,140.872 496.286,152.588 496.286,166.989 L496.286,379.234 Z" id="Shape" fill="#000000"></path>
                <path d="M383.084,199.206 C380.298,194.246 375.044,191.172 369.359,191.172 C369.336,191.172 369.314,191.172 369.291,191.173 C363.579,191.197 358.32,194.32 355.566,199.324 L284.266,328.84 C281.554,333.767 281.643,339.6 284.504,344.442 C287.366,349.284 292.434,352.175 298.058,352.175 L442.114,352.175 C447.767,352.175 452.847,349.262 455.702,344.383 C458.557,339.505 458.608,333.649 455.84,328.721 L383.084,199.206 Z M298.059,336.461 L298.032,336.418 L369.383,206.9 L442.115,336.461 L298.059,336.46 L298.059,336.461 Z" id="Shape" fill="#000000"></path>
                <path d="M370.859,305.169 C368.36,305.169 366.276,305.968 364.61,307.565 C362.945,309.162 362.112,311.098 362.112,313.37 C362.112,315.572 362.964,317.489 364.669,319.121 C366.373,320.755 368.437,321.571 370.859,321.571 C372.97,321.571 374.79,320.756 376.323,319.121 C377.853,317.489 378.621,315.572 378.621,313.37 C378.621,311.17 377.854,309.253 376.323,307.618 C374.789,305.986 372.969,305.169 370.859,305.169 Z" id="Shape" fill="#000000"></path>
                <path d="M362.432,249.572 C362.432,253.832 362.68,261.111 363.177,271.406 C363.673,281.702 363.923,288.945 363.923,293.133 C363.923,296.258 366.196,297.82 370.745,297.82 C372.362,297.82 373.885,297.412 375.312,296.595 C376.736,295.78 377.45,294.625 377.45,293.134 C377.45,288.946 377.556,281.703 377.769,271.407 C377.982,261.113 378.088,253.833 378.088,249.573 C378.088,247.586 377.391,246.005 375.997,244.833 C374.603,243.662 372.851,243.076 370.745,243.076 C368.315,243.076 366.321,243.662 364.765,244.833 C363.208,246.004 362.432,247.585 362.432,249.572 Z" id="Shape" fill="#000000"></path>
            </g>
        </g>
    </g>
</svg>