<svg width="214" height="160" viewBox="0 0 214 160" version="1.1" xmlns="http://www.w3.org/2000/svg" xmlns:xlink="http://www.w3.org/1999/xlink">
<title>upload-to-the-cloud</title>
<desc>Created using Figma</desc>
<g id="Canvas" transform="translate(-39 -4878)">
<g id="upload-to-the-cloud">
<g id="Group">
<g id="Group">
<g id="Group">
<g id="Vector">
<use xlink:href="#path0_fill" transform="translate(39 4878)" fill="#E0E0E0"/>
</g>
</g>
</g>
</g>
</g>
</g>
<defs>
<path id="path0_fill" d="M 173.916 79.9797L 172.247 79.9931C 173.115 75.607 173.582 71.1273 173.582 66.661C 173.582 29.9042 143.633 7.93701e-07 106.82 7.93701e-07C 70.0338 7.93701e-07 40.0577 29.611 40.0174 65.9815L 40.1241 67.328C 17.2514 70.6071 0 90.3522 0 113.337C 0 136.615 16.7973 156.64 40.0573 160L 73.4385 160C 77.1238 160 80.1146 157 80.1146 153.334C 80.1146 149.668 77.1238 146.668 73.4385 146.668L 41.032 146.735C 25.5165 144.455 13.3523 129.776 13.3523 113.337C 13.3523 96.952 25.6631 82.8733 42.0067 80.5401L 47.7481 79.7133C 51.0326 79.2468 53.4764 76.4338 53.4764 73.114L 53.3697 66.0213C 53.4096 36.957 77.3775 13.3325 106.82 13.3325C 136.275 13.3325 160.23 37.2506 160.23 66.6615C 160.23 70.2745 159.869 73.9143 159.135 77.4472L 157.372 85.9267C 156.932 88.0463 157.559 90.2331 159.028 91.8196C 160.483 93.3927 162.607 94.206 164.796 93.873C 164.956 93.8595 169.123 93.313 173.929 93.313C 188.484 93.313 200.3 105.272 200.3 119.991C 200.3 134.71 188.337 146.655 173.595 146.655L 126.862 146.655C 108.169 146.655 106.9 135.47 106.833 133.323L 106.833 89.0854L 122.642 104.858C 125.233 107.431 129.479 107.431 132.082 104.858C 134.673 102.258 134.673 98.0049 132.082 95.4318L 105.204 68.6074C 103.895 67.3008 102.173 66.661 100.45 66.661L 100.157 66.6078C 98.2336 66.6078 96.538 67.4346 95.323 68.7274L 68.431 95.5518C 65.8271 98.1383 65.8271 102.391 68.431 104.978C 71.035 107.564 75.2677 107.564 77.8712 104.978L 93.4804 89.4055L 93.4804 133.322C 93.4804 142.535 100.45 159.987 126.862 159.987L 173.595 159.987C 195.68 159.987 213.653 142.041 213.653 119.99C 213.653 97.9386 195.828 79.9797 173.916 79.9797Z"/>
</defs>
</svg>
